<svg width="18" height="18" viewBox="0 0 18 18" fill="none" xmlns="http://www.w3.org/2000/svg">
  <path d="M8.99984 0.666748C7.35166 0.666748 5.7405 1.15549 4.37009 2.07117C2.99968 2.98685 1.93158 4.28834 1.30084 5.81105C0.670115 7.33377 0.505087 9.00933 0.82663 10.6258C1.14817 12.2423 1.94185 13.7272 3.10728 14.8926C4.27272 16.0581 5.75758 16.8517 7.37409 17.1733C8.9906 17.4948 10.6662 17.3298 12.1889 16.6991C13.7116 16.0683 15.0131 15.0002 15.9288 13.6298C16.8444 12.2594 17.3332 10.6483 17.3332 9.00008C17.3332 7.90573 17.1176 6.8221 16.6988 5.81105C16.28 4.80001 15.6662 3.88135 14.8924 3.10752C14.1186 2.3337 13.1999 1.71987 12.1889 1.30109C11.1778 0.882296 10.0942 0.666748 8.99984 0.666748ZM8.99984 15.6667C7.6813 15.6667 6.39237 15.2758 5.29604 14.5432C4.19971 13.8107 3.34523 12.7695 2.84064 11.5513C2.33606 10.3331 2.20404 8.99269 2.46127 7.69948C2.71851 6.40627 3.35345 5.21839 4.2858 4.28604C5.21815 3.35369 6.40603 2.71875 7.69924 2.46151C8.99245 2.20428 10.3329 2.3363 11.5511 2.84088C12.7692 3.34547 13.8104 4.19995 14.543 5.29628C15.2755 6.39261 15.6665 7.68154 15.6665 9.00008C15.6665 10.7682 14.9641 12.4639 13.7139 13.7141C12.4636 14.9644 10.768 15.6667 8.99984 15.6667Z" fill="black" fill-opacity="0.6"/>
  <path d="M8.99965 4C8.77864 4 8.56668 4.0878 8.4104 4.24408C8.25412 4.40036 8.16632 4.61232 8.16632 4.83333V8.65833L5.90799 10.9083C5.82075 10.983 5.7499 11.075 5.69988 11.1784C5.64986 11.2817 5.62175 11.3944 5.61732 11.5091C5.61289 11.6239 5.63223 11.7383 5.67412 11.8453C5.71602 11.9522 5.77956 12.0493 5.86078 12.1305C5.94199 12.2118 6.03911 12.2753 6.14605 12.3172C6.25299 12.3591 6.36743 12.3784 6.4822 12.374C6.59696 12.3696 6.70957 12.3415 6.81296 12.2914C6.91635 12.2414 7.00828 12.1706 7.08299 12.0833L9.58299 9.58333C9.74 9.42947 9.82985 9.21981 9.83299 9V4.83333C9.83299 4.61232 9.74519 4.40036 9.58891 4.24408C9.43263 4.0878 9.22067 4 8.99965 4Z" fill="black" fill-opacity="0.6"/>
</svg>
