<svg width="16" height="16" viewBox="0 0 16 16" fill="none" xmlns="http://www.w3.org/2000/svg">
  <path d="M8 15C4.141 15 1 11.86 1 8C1 4.14 4.141 1 8 1C11.859 1 15 4.14 15 8C15 11.86 11.859 15 8 15ZM8 2C4.691 2 2 4.691 2 8C2 11.309 4.691 14 8 14C11.309 14 14 11.309 14 8C14 4.691 11.309 2 8 2Z" fill="#9C9C9C"/>
  <path d="M8.00001 10.167C9.19681 10.167 10.167 9.19681 10.167 8.00001C10.167 6.80321 9.19681 5.83301 8.00001 5.83301C6.80321 5.83301 5.83301 6.80321 5.83301 8.00001C5.83301 9.19681 6.80321 10.167 8.00001 10.167Z" fill="#9C9C9C"/>
</svg>
