<svg viewBox="0 0 28 28" fill="none" xmlns="http://www.w3.org/2000/svg">
  <circle cx="14" cy="14" r="13.5" stroke="currentColor"/>
  <path d="M24.5 21H23V7.5C23.0074 7.39064 22.978 7.28195 22.9163 7.1913C22.8547 7.10066 22.7644 7.0333 22.66 7L19 5.47V21H18V3.5C18 3.36739 17.9473 3.24021 17.8536 3.14645C17.7598 3.05268 17.6326 3 17.5 3H8.5C8.36739 3 8.24021 3.05268 8.14645 3.14645C8.05268 3.24021 8 3.36739 8 3.5V21H6.5C6.36739 21 6.24021 21.0527 6.14645 21.1464C6.05268 21.2402 6 21.3674 6 21.5C6 21.6326 6.05268 21.7598 6.14645 21.8536C6.24021 21.9473 6.36739 22 6.5 22H24.5C24.6326 22 24.7598 21.9473 24.8536 21.8536C24.9473 21.7598 25 21.6326 25 21.5C25 21.3674 24.9473 21.2402 24.8536 21.1464C24.7598 21.0527 24.6326 21 24.5 21ZM20.5 9H21.5C21.6326 9 21.7598 9.05268 21.8536 9.14645C21.9473 9.24021 22 9.36739 22 9.5C21.9974 9.63181 21.9439 9.7575 21.8507 9.85072C21.7575 9.94394 21.6318 9.99744 21.5 10H20.5C20.3682 9.99744 20.2425 9.94394 20.1493 9.85072C20.0561 9.7575 20.0026 9.63181 20 9.5C20 9.36739 20.0527 9.24021 20.1464 9.14645C20.2402 9.05268 20.3674 9 20.5 9ZM20.5 12H21.5C21.6326 12 21.7598 12.0527 21.8536 12.1464C21.9473 12.2402 22 12.3674 22 12.5C22 12.6326 21.9473 12.7598 21.8536 12.8536C21.7598 12.9473 21.6326 13 21.5 13H20.5C20.3674 13 20.2402 12.9473 20.1464 12.8536C20.0527 12.7598 20 12.6326 20 12.5C20 12.3674 20.0527 12.2402 20.1464 12.1464C20.2402 12.0527 20.3674 12 20.5 12ZM20.5 15H21.5C21.6318 15.0026 21.7575 15.0561 21.8507 15.1493C21.9439 15.2425 21.9974 15.3682 22 15.5C22 15.6326 21.9473 15.7598 21.8536 15.8536C21.7598 15.9473 21.6326 16 21.5 16H20.5C20.3674 16 20.2402 15.9473 20.1464 15.8536C20.0527 15.7598 20 15.6326 20 15.5C20.0026 15.3682 20.0561 15.2425 20.1493 15.1493C20.2425 15.0561 20.3682 15.0026 20.5 15ZM20.5 18H21.5C21.6326 18 21.7598 18.0527 21.8536 18.1464C21.9473 18.2402 22 18.3674 22 18.5C22 18.6326 21.9473 18.7598 21.8536 18.8536C21.7598 18.9473 21.6326 19 21.5 19H20.5C20.3674 19 20.2402 18.9473 20.1464 18.8536C20.0527 18.7598 20 18.6326 20 18.5C20 18.3674 20.0527 18.2402 20.1464 18.1464C20.2402 18.0527 20.3674 18 20.5 18ZM14 6H15C15.1326 6 15.2598 6.05268 15.3536 6.14645C15.4473 6.24021 15.5 6.36739 15.5 6.5C15.5 6.63261 15.4473 6.75979 15.3536 6.85355C15.2598 6.94732 15.1326 7 15 7H14C13.8674 7 13.7402 6.94732 13.6464 6.85355C13.5527 6.75979 13.5 6.63261 13.5 6.5C13.5 6.36739 13.5527 6.24021 13.6464 6.14645C13.7402 6.05268 13.8674 6 14 6ZM14 9H15C15.1326 9 15.2598 9.05268 15.3536 9.14645C15.4473 9.24021 15.5 9.36739 15.5 9.5C15.5 9.63261 15.4473 9.75979 15.3536 9.85355C15.2598 9.94732 15.1326 10 15 10H14C13.8674 10 13.7402 9.94732 13.6464 9.85355C13.5527 9.75979 13.5 9.63261 13.5 9.5C13.5 9.36739 13.5527 9.24021 13.6464 9.14645C13.7402 9.05268 13.8674 9 14 9ZM14 12H15C15.1326 12 15.2598 12.0527 15.3536 12.1464C15.4473 12.2402 15.5 12.3674 15.5 12.5C15.5 12.6326 15.4473 12.7598 15.3536 12.8536C15.2598 12.9473 15.1326 13 15 13H14C13.8674 13 13.7402 12.9473 13.6464 12.8536C13.5527 12.7598 13.5 12.6326 13.5 12.5C13.5 12.3674 13.5527 12.2402 13.6464 12.1464C13.7402 12.0527 13.8674 12 14 12ZM14 15H15C15.1326 15 15.2598 15.0527 15.3536 15.1464C15.4473 15.2402 15.5 15.3674 15.5 15.5C15.5 15.6326 15.4473 15.7598 15.3536 15.8536C15.2598 15.9473 15.1326 16 15 16H14C13.8674 16 13.7402 15.9473 13.6464 15.8536C13.5527 15.7598 13.5 15.6326 13.5 15.5C13.5 15.3674 13.5527 15.2402 13.6464 15.1464C13.7402 15.0527 13.8674 15 14 15ZM10.94 6H12C12.1326 6 12.2598 6.05268 12.3536 6.14645C12.4473 6.24021 12.5 6.36739 12.5 6.5C12.5 6.63261 12.4473 6.75979 12.3536 6.85355C12.2598 6.94732 12.1326 7 12 7H11C10.8674 7 10.7402 6.94732 10.6464 6.85355C10.5527 6.75979 10.5 6.63261 10.5 6.5C10.5 6.36739 10.5527 6.24021 10.6464 6.14645C10.7402 6.05268 10.8674 6 11 6H10.94ZM10.94 9H12C12.1326 9 12.2598 9.05268 12.3536 9.14645C12.4473 9.24021 12.5 9.36739 12.5 9.5C12.5 9.63261 12.4473 9.75979 12.3536 9.85355C12.2598 9.94732 12.1326 10 12 10H11C10.8674 10 10.7402 9.94732 10.6464 9.85355C10.5527 9.75979 10.5 9.63261 10.5 9.5C10.5 9.36739 10.5527 9.24021 10.6464 9.14645C10.7402 9.05268 10.8674 9 11 9H10.94ZM10.94 12H12C12.1326 12 12.2598 12.0527 12.3536 12.1464C12.4473 12.2402 12.5 12.3674 12.5 12.5C12.5 12.6326 12.4473 12.7598 12.3536 12.8536C12.2598 12.9473 12.1326 13 12 13H11C10.8674 13 10.7402 12.9473 10.6464 12.8536C10.5527 12.7598 10.5 12.6326 10.5 12.5C10.5 12.3674 10.5527 12.2402 10.6464 12.1464C10.7402 12.0527 10.8674 12 11 12H10.94ZM10.94 15H12C12.1326 15 12.2598 15.0527 12.3536 15.1464C12.4473 15.2402 12.5 15.3674 12.5 15.5C12.5 15.6326 12.4473 15.7598 12.3536 15.8536C12.2598 15.9473 12.1326 16 12 16H11C10.8674 16 10.7402 15.9473 10.6464 15.8536C10.5527 15.7598 10.5 15.6326 10.5 15.5C10.5 15.3674 10.5527 15.2402 10.6464 15.1464C10.7402 15.0527 10.8674 15 11 15H10.94ZM13.5 21V19H12.5V21H11.5V18.47C11.5077 18.3427 11.5637 18.2231 11.6566 18.1357C11.7496 18.0483 11.8724 17.9998 12 18H14C14.1326 18 14.2598 18.0527 14.3536 18.1464C14.4473 18.2402 14.5 18.3674 14.5 18.5V21H13.5Z" fill="currentColor"/>
</svg>
