<svg width="20" height="20" viewBox="0 0 20 20" fill="none"
  xmlns="http://www.w3.org/2000/svg">
  <path fill-rule="evenodd" clip-rule="evenodd" d="M15.1724 5.18531C13.8393 5.18531 12.7586 4.02454 12.7586 2.59266C12.7586 1.16077 13.8393 0 15.1724 0C16.5055 0 17.5862 1.16077 17.5862 2.59266C17.5862 4.02454 16.5055 5.18531 15.1724 5.18531ZM4.82759 5.18531C3.49449 5.18531 2.41379 4.02454 2.41379 2.59266C2.41379 1.16077 3.49449 0 4.82759 0C6.16069 0 7.24138 1.16077 7.24138 2.59266C7.24138 4.02454 6.16069 5.18531 4.82759 5.18531ZM10 11.1115C8.47638 11.1115 7.24124 9.78487 7.24124 8.14835C7.24124 6.51183 8.47638 5.18517 10 5.18517C11.5236 5.18517 12.7588 6.51183 12.7588 8.14835C12.7588 9.78487 11.5236 11.1115 10 11.1115ZM15.5178 17.037C15.5178 14.5821 13.6648 12.5924 11.3795 12.5924H8.62104C6.33573 12.5924 4.48268 14.5821 4.48268 17.037V17.7777C4.48268 18.3669 4.70104 18.9323 5.08873 19.3491C5.47716 19.7659 6.003 20 6.55186 20H13.4486C13.9975 20 14.5233 19.7659 14.9118 19.3491C15.2995 18.9323 15.5178 18.3669 15.5178 17.7777V17.037ZM3.84172 14.0744H2.06897C1.52035 14.0744 0.994138 13.8403 0.605862 13.4237C0.217931 13.0066 0 12.4414 0 11.8521V11.1114C0 9.93247 0.435862 8.80207 1.21207 7.96872C1.98793 7.13499 3.04034 6.66683 4.13793 6.66683H5.51724C5.70793 6.66683 5.89759 6.68091 6.08448 6.70868C5.94035 7.16018 5.86207 7.64463 5.86207 8.14835C5.86207 9.39727 6.34276 10.5269 7.11621 11.3344C5.72172 11.7581 4.55172 12.7555 3.84172 14.0744ZM13.9155 6.70868C14.1024 6.68091 14.2921 6.66683 14.4828 6.66683H15.8621C16.9597 6.66683 18.0121 7.13499 18.7879 7.96872C19.5641 8.80207 20 9.93247 20 11.1114V11.8521C20 12.4414 19.7821 13.0066 19.3941 13.4237C19.0059 13.8403 18.4797 14.0744 17.931 14.0744H16.1583C15.4483 12.7555 14.2783 11.7581 12.8838 11.3344C13.6572 10.5269 14.1379 9.39727 14.1379 8.14835C14.1379 7.64463 14.0597 7.16018 13.9155 6.70868Z" fill="#757575"/>
</svg>
